<svg width="698" height="262" viewBox="0 0 698 262" fill="none" xmlns="http://www.w3.org/2000/svg">
<g clip-path="url(#clip0_112_7)">
<g clip-path="url(#clip1_112_7)">
<g clip-path="url(#clip2_112_7)">
<g clip-path="url(#clip3_112_7)">
<g clip-path="url(#clip4_112_7)">
<g clip-path="url(#clip5_112_7)">
<path d="M73.0846 96.1806C73.0846 96.5409 72.6858 96.7661 71.8882 96.8562C71.0906 96.9462 70.2931 96.8111 69.4955 96.4508C68.6979 96.0906 68.2991 95.5952 68.2991 94.9647C68.2991 85.7775 69.3782 78.3692 71.5364 72.7398C73.6945 67.1104 76.5095 64.2957 79.9814 64.2957C80.9197 64.2957 81.7173 64.611 82.3741 65.2414C83.031 65.8719 83.3594 66.7276 83.3594 67.8085C79.043 71.9517 75.9934 77.9864 74.2106 85.9126C73.4599 89.1551 73.0846 92.5778 73.0846 96.1806ZM64.6396 67.5382C51.6906 67.5382 40.1021 74.7889 29.8742 89.2902C21.0539 101.81 15.2831 116.401 12.5619 133.064C11.6236 138.559 11.1544 143.603 11.1544 148.196C11.1544 157.023 12.8434 164.116 16.2215 169.475C19.5995 174.835 24.3381 177.514 30.4372 177.514C38.6946 177.514 45.7321 172.966 51.5498 163.869C55.4908 157.744 57.4613 152.34 57.4613 147.656C57.4613 145.584 56.8983 144.548 55.7723 144.548C56.3353 142.477 57.7428 141.441 59.9948 141.441C62.6222 141.441 63.9358 143.242 63.9358 146.845C63.9358 153.601 60.8393 160.806 54.6463 168.462C47.2335 177.559 38.5538 182.108 28.6075 182.108C16.1276 182.108 7.68259 176.118 3.27241 164.139C1.11424 158.554 0.0351562 152.227 0.0351562 145.156C0.0351562 138.086 1.25499 130.182 3.69467 121.445C8.38635 104.152 16.2918 89.7856 27.4111 78.3467C38.5304 66.9077 50.846 61.1432 64.3581 61.0532C66.2348 61.0532 67.5953 61.6386 68.4398 62.8095C69.2843 63.9805 69.6597 65.1063 69.5658 66.1872V67.9436C68.8152 67.6733 67.1731 67.5382 64.6396 67.5382ZM102.501 126.444C97.5283 135.091 93.6576 142.747 90.8895 149.412C88.1214 156.077 86.7374 160.018 86.7374 161.234C86.7374 162.45 86.0806 163.058 84.7669 163.058C81.9519 163.058 80.5444 159.455 80.5444 152.249C80.5444 137.928 82.0457 123.54 85.0484 109.083C88.0511 94.6269 91.6167 83.0529 95.7454 74.3611C99.8741 65.6693 103.721 61.3234 107.287 61.3234C108.788 61.3234 109.539 62.0439 109.539 63.4851C104.566 74.0233 100.414 86.0477 97.0825 99.5583C93.7515 113.069 90.9599 127.48 88.7079 142.792H89.6932C101.61 114.69 113.292 100.639 124.74 100.639C129.526 100.639 131.918 102.846 131.918 107.259C131.261 109.331 130.417 112.056 129.385 115.433C128.353 118.811 126.992 124.868 125.303 133.605C123.614 142.342 122.769 149.998 122.769 156.573C122.769 166.12 124.224 170.894 127.133 170.894C128.165 170.894 129.197 170.466 130.229 169.611C131.261 168.755 131.965 168.327 132.341 168.327C133.654 168.327 133.607 169.318 132.2 171.299C131.824 171.93 131.003 172.786 129.737 173.866C128.47 174.947 127.227 175.488 126.007 175.488C122.347 175.488 119.509 173.033 117.491 168.124C115.474 163.216 114.465 156.843 114.465 149.007C114.465 135.767 116.53 122.121 120.658 108.07C120.846 106.719 120.283 106.133 118.969 106.314C118.312 106.404 117.656 106.764 116.999 107.394C112.307 111.448 107.475 117.798 102.501 126.444ZM144.586 154.141C144.586 140.811 146.017 128.921 148.879 118.473C151.717 108.025 155.353 102.801 159.787 102.801C161.945 102.801 163.024 103.927 163.024 106.178C162.086 108.52 160.913 111.628 159.505 115.501C158.098 119.374 156.245 126.377 153.946 136.51C151.647 146.643 150.497 155.672 150.497 163.598C150.497 164.859 149.782 165.49 148.351 165.49C145.841 165.49 144.586 161.707 144.586 154.141ZM165.135 87.8041L163.446 90.1009C161.476 90.1009 160.491 88.2995 160.491 84.6967C160.491 82.535 161.101 80.2607 162.32 77.8738C163.54 75.487 165.276 74.2935 167.528 74.2935C169.405 74.2935 170.343 75.3293 170.343 77.4009C170.343 79.4726 168.607 82.9403 165.135 87.8041ZM192.265 185.35C186.823 185.35 182.811 182.603 180.231 177.109C177.65 171.615 176.36 163.373 176.36 152.385C176.36 141.396 178.049 128.381 181.427 113.339C184.805 98.2973 188.77 85.8225 193.321 75.9148C197.872 66.007 201.836 61.0532 205.214 61.0532C206.809 61.0532 207.607 61.9539 207.607 63.7553C205.636 68.0787 203.15 74.5862 200.147 83.278C197.144 91.9698 194.634 100.009 192.617 107.394C190.599 114.78 188.77 123.427 187.128 133.335C185.486 143.242 184.664 151.732 184.664 158.802C184.664 165.873 185.392 171.322 186.846 175.15C188.301 178.978 190.294 180.892 192.828 180.892C194.986 180.892 197.051 179.924 199.021 177.987C200.992 176.051 202.399 174.137 203.244 172.245C203.713 171.254 204.557 170.984 205.777 171.434C206.246 171.615 206.363 171.997 206.129 172.583C205.894 173.168 205.519 173.911 205.003 174.812C204.487 175.713 203.572 177.109 202.258 179C199.443 183.234 196.112 185.35 192.265 185.35ZM229.282 185.35C223.84 185.35 219.829 182.603 217.248 177.109C214.668 171.615 213.378 163.373 213.378 152.385C213.378 141.396 215.067 128.381 218.445 113.339C221.823 98.2973 225.787 85.8225 230.338 75.9148C234.889 66.007 238.853 61.0532 242.231 61.0532C243.827 61.0532 244.624 61.9539 244.624 63.7553C242.654 68.0787 240.167 74.5862 237.164 83.278C234.162 91.9698 231.652 100.009 229.634 107.394C227.617 114.78 225.787 123.427 224.145 133.335C222.503 143.242 221.682 151.732 221.682 158.802C221.682 165.873 222.409 171.322 223.863 175.15C225.318 178.978 227.312 180.892 229.845 180.892C232.004 180.892 234.068 179.924 236.038 177.987C238.009 176.051 239.416 174.137 240.261 172.245C240.73 171.254 241.575 170.984 242.794 171.434C243.264 171.615 243.381 171.997 243.146 172.583C242.912 173.168 242.536 173.911 242.02 174.812C241.504 175.713 240.589 177.109 239.276 179C236.461 183.234 233.13 185.35 229.282 185.35ZM239.698 207.913C234.912 207.913 232.52 205.166 232.52 199.672C232.52 195.798 233.786 190.484 236.32 183.729C238.853 176.974 241.387 171.119 243.92 166.165C248.518 157.519 251.802 151.574 253.773 148.331C255.931 128.966 257.855 115.095 259.544 106.719C257.292 106.989 255.04 107.124 252.788 107.124C250.536 107.124 249.175 105.998 248.706 103.747C248.706 101.945 249.269 100.909 250.395 100.639C250.77 101.18 252.131 101.45 254.477 101.45C256.823 101.45 258.934 101.36 260.81 101.18C266.91 74.2485 277.325 60.783 292.057 60.783C293.934 60.783 294.825 61.4585 294.731 62.8095C294.637 63.7102 294.309 64.1606 293.746 64.1606C287.365 64.1606 282.251 67.3581 278.404 73.7531C274.557 80.1481 271.461 89.1101 269.115 100.639C280.281 99.8285 287.084 99.4232 289.524 99.4232C290.368 99.4232 290.72 99.9636 290.579 101.044C290.438 102.125 289.477 102.666 287.694 102.666C285.911 102.666 279.389 103.566 268.129 105.368C266.91 112.033 265.619 121.716 264.259 134.416C262.898 147.115 261.796 156.798 260.951 163.463C260.107 170.128 259.121 175.983 257.995 181.027C256.869 186.071 255.509 190.71 253.914 194.943C250.63 203.59 245.891 207.913 239.698 207.913ZM239.839 203.995C242.747 203.995 244.953 201.653 246.454 196.969C248.143 191.835 249.363 186.476 250.113 180.892C251.239 172.515 252.225 163.914 253.069 155.087C246.032 169.408 241.762 178.865 240.261 183.459C237.727 191.205 236.461 196.564 236.461 199.536C236.461 202.509 237.587 203.995 239.839 203.995ZM296.28 82.535C295.154 82.535 294.544 81.6343 294.45 79.8328C294.45 74.1584 295.458 68.9343 297.476 64.1606C299.493 59.3869 302.003 57 305.006 57C306.132 57 306.695 57.6755 306.695 59.0266C306.038 60.0174 305.428 60.9181 304.865 61.7287C304.302 62.5393 303.716 63.4851 303.106 64.5659C302.496 65.6468 301.863 66.8627 301.206 68.2138C300.549 69.5648 299.939 70.9159 299.376 72.2669C298.156 75.2393 297.546 78.1215 297.546 80.9137C297.546 81.9945 297.124 82.535 296.28 82.535ZM309.932 185.35C304.49 185.35 300.479 182.603 297.898 177.109C295.318 171.615 294.028 163.373 294.028 152.385C294.028 141.396 295.717 128.381 299.095 113.339C302.473 98.2973 306.437 85.8225 310.988 75.9148C315.539 66.007 319.503 61.0532 322.881 61.0532C324.477 61.0532 325.274 61.9539 325.274 63.7553C323.304 68.0787 320.817 74.5862 317.814 83.278C314.812 91.9698 312.302 100.009 310.284 107.394C308.267 114.78 306.437 123.427 304.795 133.335C303.153 143.242 302.332 151.732 302.332 158.802C302.332 165.873 303.059 171.322 304.513 175.15C305.968 178.978 307.962 180.892 310.495 180.892C312.653 180.892 314.718 179.924 316.688 177.987C318.659 176.051 320.066 174.137 320.911 172.245C321.38 171.254 322.225 170.984 323.444 171.434C323.914 171.615 324.031 171.997 323.796 172.583C323.562 173.168 323.186 173.911 322.67 174.812C322.154 175.713 321.239 177.109 319.926 179C317.111 183.234 313.78 185.35 309.932 185.35ZM329.884 154.141C329.884 140.811 331.315 128.921 334.177 118.473C337.039 108.025 340.675 102.801 345.085 102.801C347.243 102.801 348.322 103.927 348.322 106.178C347.384 108.52 346.211 111.628 344.803 115.501C343.396 119.374 341.543 126.377 339.244 136.51C336.945 146.643 335.795 155.672 335.795 163.598C335.795 164.859 335.091 165.49 333.684 165.49C331.15 165.49 329.884 161.707 329.884 154.141ZM350.433 87.8041L348.744 90.1009C346.774 90.1009 345.788 88.2995 345.788 84.6967C345.788 82.535 346.398 80.2607 347.618 77.8738C348.838 75.487 350.574 74.2935 352.826 74.2935C354.703 74.2935 355.641 75.3293 355.641 77.4009C355.641 79.4726 353.905 82.9403 350.433 87.8041ZM398.288 170.354C394.254 170.354 390.5 167.719 387.028 162.45C383.556 157.181 379.991 149.953 376.331 140.765C371.452 148.151 367.511 153.713 364.508 157.451C361.506 161.189 359.066 163.058 357.189 163.058C356.157 163.058 355.383 162.765 354.867 162.18C354.351 161.594 354.093 160.986 354.093 160.356V159.41C354.75 159.41 355.5 158.982 356.345 158.127C357.189 157.271 357.916 156.528 358.526 155.897C359.136 155.267 359.864 154.389 360.708 153.263C361.553 152.137 362.303 151.124 362.96 150.223C363.617 149.322 364.461 148.129 365.494 146.643C366.526 145.156 367.394 143.895 368.097 142.86C368.801 141.824 369.763 140.405 370.983 138.604C370.983 138.604 371.968 137.208 373.939 134.416C373.469 133.155 372.859 131.533 372.109 129.552C371.358 127.57 370.748 125.949 370.279 124.688C369.81 123.427 369.27 121.963 368.66 120.297C368.051 118.631 367.511 117.257 367.042 116.176C366.573 115.095 366.057 113.924 365.494 112.664C364.931 111.403 364.438 110.389 364.016 109.624C363.593 108.858 363.101 108.16 362.538 107.529C361.599 106.178 360.708 105.503 359.864 105.503C359.957 105.143 360.075 104.67 360.215 104.084C360.356 103.499 360.966 102.711 362.045 101.72C363.124 100.729 364.461 100.234 366.057 100.234C368.402 100.234 370.725 102.395 373.024 106.719C375.323 111.042 377.833 117.122 380.554 124.958C391.532 110.187 399.414 102.801 404.2 102.801C405.326 102.801 406.241 103.116 406.945 103.747C407.648 104.377 408.094 105.323 408.282 106.584C404.904 106.584 401.127 108.768 396.951 113.136C392.776 117.505 388.014 123.562 382.665 131.308C388.107 147.881 391.884 157.766 393.995 160.964C396.107 164.161 397.796 165.76 399.063 165.76C400.329 165.76 401.479 165.332 402.511 164.477C403.543 163.621 404.247 163.193 404.622 163.193C405.936 163.193 405.889 164.184 404.481 166.165C404.106 166.796 403.285 167.651 402.018 168.732C400.752 169.813 399.508 170.354 398.288 170.354Z" fill="#FCA311"/>
</g>
</g>
</g>
</g>
<g clip-path="url(#clip6_112_7)">
<g clip-path="url(#clip7_112_7)">
<path d="M544.048 30.8912H526.882V48.0571H544.048V30.8912Z" fill="#FCA311"/>
<path d="M544.048 67.0698H526.882V84.2357H544.048V67.0698Z" fill="#FCA311"/>
<path d="M544.048 103.252H526.882V120.417H544.048V103.252Z" fill="#FCA311"/>
<path d="M544.048 139.433H526.882V156.599H544.048V139.433Z" fill="#FCA311"/>
<path d="M681.525 30.8912H664.359V48.0571H681.525V30.8912Z" fill="#FCA311"/>
<path d="M681.525 67.0698H664.359V84.2357H681.525V67.0698Z" fill="#FCA311"/>
<path d="M681.525 103.252H664.359V120.417H681.525V103.252Z" fill="#FCA311"/>
<path d="M681.525 139.433H664.359V156.599H681.525V139.433Z" fill="#FCA311"/>
<path d="M580.197 133.103C579.632 133.103 579.071 132.958 578.557 132.676C577.494 132.079 576.839 130.958 576.839 129.748V60.7723C576.839 59.5591 577.494 58.4389 578.557 57.8443C579.62 57.2617 580.918 57.2737 581.951 57.9163L638.121 92.4013C639.118 93.0109 639.719 94.092 639.719 95.2572C639.719 96.4254 639.115 97.5066 638.121 98.1132L581.954 132.604C581.416 132.937 580.806 133.103 580.197 133.103ZM583.554 66.7696V123.751L629.953 95.2572L583.554 66.7696Z" fill="#FCA311"/>
<path d="M669.251 6.80611C681.339 6.80611 691.174 16.6413 691.174 28.7289V159.963C691.174 172.05 681.339 181.885 669.251 181.885H538.018C525.93 181.885 516.095 172.05 516.095 159.963V28.7289C516.095 16.6413 525.93 6.80611 538.018 6.80611H669.251ZM669.251 0.0941162H538.018C522.203 0.0941162 509.383 12.9145 509.383 28.7289V159.963C509.383 175.777 522.203 188.597 538.018 188.597H669.251C685.066 188.597 697.886 175.777 697.886 159.963V28.7289C697.883 12.9145 685.063 0.0941162 669.251 0.0941162Z" fill="#FCA311"/>
<path d="M647.184 195.306H640.28L640.956 198.081C642.391 203.958 641.448 210.049 638.301 215.217C635.154 220.389 630.181 224.019 624.304 225.455L508.464 253.642C502.599 255.066 496.511 254.135 491.328 250.981C486.157 247.837 482.526 242.861 481.09 236.984L452.912 121.153C451.477 115.276 452.429 109.186 455.573 104.017C458.717 98.846 463.693 95.2152 469.57 93.7797L502.674 85.7253V78.8181L467.985 87.2539C460.363 89.1098 453.921 93.8217 449.837 100.525C445.762 107.222 444.536 115.114 446.389 122.736L474.577 238.566C476.424 246.188 481.135 252.63 487.841 256.714C492.502 259.546 497.731 261.006 503.052 261.006C505.38 261.006 507.731 260.724 510.053 260.153L625.892 231.966C633.514 230.119 639.956 225.407 644.031 218.701C648.115 212.004 649.332 204.112 647.479 196.49L647.184 195.306Z" fill="#FCA311"/>
</g>
</g>
</g>
</g>
<defs>
<clipPath id="clip0_112_7">
<rect width="697.772" height="260.912" fill="white" transform="translate(0.114014 0.0941162)"/>
</clipPath>
<clipPath id="clip1_112_7">
<rect width="697.772" height="260.912" fill="white" transform="translate(0.114014 0.0941162)"/>
</clipPath>
<clipPath id="clip2_112_7">
<rect width="408.317" height="209.66" fill="white" transform="translate(0 57)"/>
</clipPath>
<clipPath id="clip3_112_7">
<rect width="408.317" height="209.66" fill="white" transform="translate(0 57)"/>
</clipPath>
<clipPath id="clip4_112_7">
<rect width="408.317" height="150.913" fill="white" transform="translate(0 57)"/>
</clipPath>
<clipPath id="clip5_112_7">
<rect width="408.317" height="150.913" fill="white" transform="translate(0 57)"/>
</clipPath>
<clipPath id="clip6_112_7">
<rect width="252.34" height="260.912" fill="white" transform="translate(445.546 0.0941162)"/>
</clipPath>
<clipPath id="clip7_112_7">
<rect width="252.34" height="260.912" fill="white" transform="translate(445.546 0.0941162)"/>
</clipPath>
</defs>
</svg>
